<svg xmlns="http://www.w3.org/2000/svg" viewBox="0 0 32 32">
  <rect width="32" height="32" rx="6" fill="#F7931A"/>
  <path d="M21.8 14.4c.3-2.1-1.3-3.2-3.4-3.9l.7-2.8-1.7-.4-.7 2.7c-.4-.1-.9-.2-1.4-.3l.7-2.8-1.7-.4-.7 2.8c-.4-.1-.7-.2-1-.2l-2.4-.6-.5 1.8s1.3.3 1.2.3c.7.2.8.6.8 1l-.8 3.2c0 .1.1.1.1.1l-.1 0-1.1 4.5c-.1.2-.3.5-.8.4 0 0-1.2-.3-1.2-.3l-.8 2 2.2.6c.4.1.8.2 1.2.3l-.7 2.8 1.7.4.7-2.8c.5.1.9.2 1.4.3l-.7 2.8 1.7.4.7-2.8c2.9.5 5.1.3 6-2.3.7-2.1 0-3.3-1.5-4.1 1.1-.3 1.9-1 2.1-2.5zm-3.8 5.3c-.5 2.1-4 1-5.1.7l.9-3.7c1.1.3 4.7.8 4.2 3zm.5-5.3c-.5 1.9-3.4.9-4.3.7l.8-3.3c1 .2 4 .7 3.5 2.6z" fill="white"/>
</svg>
