<svg xmlns="http://www.w3.org/2000/svg" width="1200" height="630" viewBox="0 0 1200 630">
  <defs>
    <linearGradient id="bg" x1="0" y1="0" x2="1" y2="1">
      <stop offset="0%" stop-color="#18181b"/>
      <stop offset="100%" stop-color="#09090b"/>
    </linearGradient>
    <linearGradient id="accent" x1="0" y1="0" x2="1" y2="0">
      <stop offset="0%" stop-color="#F7931A" stop-opacity="0.6"/>
      <stop offset="100%" stop-color="#F7931A" stop-opacity="0"/>
    </linearGradient>
  </defs>
  <rect width="1200" height="630" fill="url(#bg)"/>
  <line x1="0" y1="540" x2="600" y2="540" stroke="url(#accent)" stroke-width="2"/>
  <rect x="120" y="180" width="120" height="120" rx="24" fill="#F7931A"/>
  <g transform="translate(120,180) scale(3.75)">
    <path d="M21.8 14.4c.3-2.1-1.3-3.2-3.4-3.9l.7-2.8-1.7-.4-.7 2.7c-.4-.1-.9-.2-1.4-.3l.7-2.8-1.7-.4-.7 2.8c-.4-.1-.7-.2-1-.2l-2.4-.6-.5 1.8s1.3.3 1.2.3c.7.2.8.6.8 1l-.8 3.2c0 .1.1.1.1.1l-.1 0-1.1 4.5c-.1.2-.3.5-.8.4 0 0-1.2-.3-1.2-.3l-.8 2 2.2.6c.4.1.8.2 1.2.3l-.7 2.8 1.7.4.7-2.8c.5.1.9.2 1.4.3l-.7 2.8 1.7.4.7-2.8c2.9.5 5.1.3 6-2.3.7-2.1 0-3.3-1.5-4.1 1.1-.3 1.9-1 2.1-2.5zm-3.8 5.3c-.5 2.1-4 1-5.1.7l.9-3.7c1.1.3 4.7.8 4.2 3zm.5-5.3c-.5 1.9-3.4.9-4.3.7l.8-3.3c1 .2 4 .7 3.5 2.6z" fill="white"/>
  </g>
  <text x="280" y="275" font-family="system-ui, -apple-system, sans-serif" font-size="72" font-weight="700" fill="white">BitSilo</text>
  <text x="122" y="370" font-family="system-ui, -apple-system, sans-serif" font-size="28" font-weight="400" fill="#a1a1aa">sBTC Micro-Yield Vault on Stacks</text>
  <text x="122" y="420" font-family="system-ui, -apple-system, sans-serif" font-size="20" font-weight="400" fill="#71717a">Deposit · Earn Yield · Withdraw — All verified on-chain</text>
</svg>